<?xml version="1.0" encoding="UTF-8"?>
<svg width="24px" height="24px" viewBox="0 0 24 24" version="1.1" xmlns="http://www.w3.org/2000/svg">
    <g stroke="none" stroke-width="1" fill="none" fill-rule="evenodd">
        <path d="M12,14 C13.66,14 15,12.66 15,11 L15,5 C15,3.34 13.66,2 12,2 C10.34,2 9,3.34 9,5 L9,11 C9,12.66 10.34,14 12,14 Z M17.91,11 C17.91,11.94 17.64,12.82 17.19,13.57 L18.96,15.34 C19.62,14.91 20.22,14.39 20.74,13.77 L18.95,11.98 C18.48,11.74 18.02,11.45 17.59,11.12 C17.77,11.08 17.84,11.04 17.91,11 Z M4.54,9.46 C4.73,8.8 5.1,8.2 5.58,7.72 L7.37,9.51 C6.88,9.99 6.51,10.59 6.32,11.25 C6.25,11.32 6.21,11.39 6.17,11.57 C6.5,11.14 6.79,10.68 7.03,10.21 L5.26,8.44 C4.83,9.1 4.42,9.78 4.54,9.46 Z M19,12 C19,12.94 18.8,13.82 18.46,14.64 L20.24,16.42 C20.78,15.33 21,14.17 21,13 C21,12.45 20.55,12 20,12 C19.45,12 19,12.45 19,13 Z M3,13 C3,13.55 3.45,14 4,14 C4.55,14 5,13.55 5,13 C5,11.83 5.22,10.67 5.76,9.58 L3.98,7.8 C3.6,8.46 3.25,9.16 3,9.94 C3,10.28 3,10.61 3,10.94 C3,11.62 3,12.29 3,13 Z M8,15 L8,16 C8,17.66 9.34,19 11,19 L13,19 C14.66,19 16,17.66 16,16 L16,15 C16,14.45 16.45,14 17,14 C17.55,14 18,14.45 18,15 L18,16 C18,18.76 15.76,21 13,21 L11,21 C8.24,21 6,18.76 6,16 L6,15 C6,14.45 6.45,14 7,14 C7.55,14 8,14.45 8,15 Z" fill="#757575"></path>
    </g>
</svg> 